<mxfile host="app.diagrams.net" modified="2023-01-05T13:51:24.708Z" agent="5.0 (Windows NT 10.0; Win64; x64) AppleWebKit/537.36 (KHTML, like Gecko) Chrome/108.0.0.0 Safari/537.36" version="20.7.4" etag="_kaODOHdBbk96vAYalEC" type="github">
  <diagram id="dp5_4tYXMD5Wxe0bTC1r" name="Page-1">
    <mxGraphModel dx="1434" dy="764" grid="1" gridSize="10" guides="1" tooltips="1" connect="1" arrows="1" fold="1" page="1" pageScale="1" pageWidth="850" pageHeight="1100" math="0" shadow="0">
      <root>
        <mxCell id="0" />
        <mxCell id="1" parent="0" />
        <mxCell id="D2CJ33w6apMbW9ELbGaL-1" value="When PC client trigger transfer" style="text;html=1;strokeColor=none;fillColor=none;align=center;verticalAlign=middle;whiteSpace=wrap;rounded=0;fontSize=14;fontColor=#007FFF;" vertex="1" parent="1">
          <mxGeometry y="160" width="100" height="30" as="geometry" />
        </mxCell>
        <mxCell id="D2CJ33w6apMbW9ELbGaL-2" value="" style="endArrow=classic;html=1;rounded=0;" edge="1" parent="1">
          <mxGeometry width="50" height="50" relative="1" as="geometry">
            <mxPoint x="120" y="170" as="sourcePoint" />
            <mxPoint x="200" y="170" as="targetPoint" />
            <Array as="points">
              <mxPoint x="150" y="170" />
            </Array>
          </mxGeometry>
        </mxCell>
        <mxCell id="D2CJ33w6apMbW9ELbGaL-3" value="" style="endArrow=classic;html=1;rounded=0;" edge="1" parent="1">
          <mxGeometry width="50" height="50" relative="1" as="geometry">
            <mxPoint x="110" y="160" as="sourcePoint" />
            <mxPoint x="200" y="100" as="targetPoint" />
            <Array as="points">
              <mxPoint x="140" y="140" />
            </Array>
          </mxGeometry>
        </mxCell>
        <mxCell id="D2CJ33w6apMbW9ELbGaL-4" value="" style="endArrow=classic;html=1;rounded=0;" edge="1" parent="1">
          <mxGeometry width="50" height="50" relative="1" as="geometry">
            <mxPoint x="110" y="190" as="sourcePoint" />
            <mxPoint x="190" y="230" as="targetPoint" />
            <Array as="points">
              <mxPoint x="150" y="210" />
            </Array>
          </mxGeometry>
        </mxCell>
        <mxCell id="D2CJ33w6apMbW9ELbGaL-6" value="The first time login" style="text;html=1;strokeColor=none;fillColor=none;align=center;verticalAlign=middle;whiteSpace=wrap;rounded=0;fontSize=14;" vertex="1" parent="1">
          <mxGeometry x="210" y="80" width="80" height="30" as="geometry" />
        </mxCell>
        <mxCell id="D2CJ33w6apMbW9ELbGaL-9" value="Offline over queue" style="text;html=1;strokeColor=none;fillColor=none;align=center;verticalAlign=middle;whiteSpace=wrap;rounded=0;fontSize=14;" vertex="1" parent="1">
          <mxGeometry x="210" y="150" width="80" height="40" as="geometry" />
        </mxCell>
        <mxCell id="D2CJ33w6apMbW9ELbGaL-10" value="Manual" style="text;html=1;strokeColor=none;fillColor=none;align=center;verticalAlign=middle;whiteSpace=wrap;rounded=0;fontSize=14;" vertex="1" parent="1">
          <mxGeometry x="220" y="220" width="60" height="30" as="geometry" />
        </mxCell>
        <mxCell id="D2CJ33w6apMbW9ELbGaL-11" value="&lt;ul&gt;&lt;li style=&quot;text-align: left;&quot;&gt;Manage by server&lt;/li&gt;&lt;li style=&quot;text-align: left;&quot;&gt;1600 limit&lt;/li&gt;&lt;li&gt;queue types: without e2ee &amp;amp; e2ee&lt;/li&gt;&lt;/ul&gt;" style="text;html=1;strokeColor=none;fillColor=none;align=center;verticalAlign=middle;whiteSpace=wrap;rounded=0;perimeterSpacing=0;strokeWidth=1;labelBorderColor=default;" vertex="1" parent="1">
          <mxGeometry x="280" y="122.5" width="250" height="95" as="geometry" />
        </mxCell>
        <mxCell id="D2CJ33w6apMbW9ELbGaL-20" value="" style="rounded=0;whiteSpace=wrap;html=1;fillColor=#f5f5f5;gradientColor=#b3b3b3;strokeColor=#666666;" vertex="1" parent="1">
          <mxGeometry x="650" y="90" width="20" height="60" as="geometry" />
        </mxCell>
        <mxCell id="D2CJ33w6apMbW9ELbGaL-22" value="" style="rounded=0;whiteSpace=wrap;html=1;fillColor=#60a917;fontColor=#ffffff;strokeColor=#2D7600;" vertex="1" parent="1">
          <mxGeometry x="670" y="90" width="20" height="60" as="geometry" />
        </mxCell>
        <mxCell id="D2CJ33w6apMbW9ELbGaL-23" value="" style="rounded=0;whiteSpace=wrap;html=1;fillColor=#60a917;fontColor=#ffffff;strokeColor=#2D7600;" vertex="1" parent="1">
          <mxGeometry x="690" y="90" width="20" height="60" as="geometry" />
        </mxCell>
        <mxCell id="D2CJ33w6apMbW9ELbGaL-24" value="" style="rounded=0;whiteSpace=wrap;html=1;fillColor=#60a917;fontColor=#ffffff;strokeColor=#2D7600;" vertex="1" parent="1">
          <mxGeometry x="710" y="90" width="20" height="60" as="geometry" />
        </mxCell>
        <mxCell id="D2CJ33w6apMbW9ELbGaL-25" value="" style="rounded=0;whiteSpace=wrap;html=1;fillColor=#f5f5f5;gradientColor=#b3b3b3;strokeColor=#666666;" vertex="1" parent="1">
          <mxGeometry x="630" y="90" width="20" height="60" as="geometry" />
        </mxCell>
        <mxCell id="D2CJ33w6apMbW9ELbGaL-26" value="" style="rounded=0;whiteSpace=wrap;html=1;fillColor=#60a917;fontColor=#ffffff;strokeColor=#2D7600;" vertex="1" parent="1">
          <mxGeometry x="730" y="90" width="20" height="60" as="geometry" />
        </mxCell>
        <mxCell id="D2CJ33w6apMbW9ELbGaL-27" value="" style="rounded=0;whiteSpace=wrap;html=1;fillColor=#f5f5f5;gradientColor=#b3b3b3;strokeColor=#666666;" vertex="1" parent="1">
          <mxGeometry x="580" y="190" width="20" height="60" as="geometry" />
        </mxCell>
        <mxCell id="D2CJ33w6apMbW9ELbGaL-28" value="" style="rounded=0;whiteSpace=wrap;html=1;fillColor=#60a917;fontColor=#ffffff;strokeColor=#2D7600;" vertex="1" parent="1">
          <mxGeometry x="580" y="275" width="20" height="60" as="geometry" />
        </mxCell>
        <mxCell id="D2CJ33w6apMbW9ELbGaL-29" value="removed" style="text;html=1;strokeColor=none;fillColor=none;align=center;verticalAlign=middle;whiteSpace=wrap;rounded=0;strokeWidth=1;fontSize=14;" vertex="1" parent="1">
          <mxGeometry x="620" y="210" width="140" height="30" as="geometry" />
        </mxCell>
        <mxCell id="D2CJ33w6apMbW9ELbGaL-31" value="valid" style="text;html=1;strokeColor=none;fillColor=none;align=center;verticalAlign=middle;whiteSpace=wrap;rounded=0;strokeWidth=1;fontSize=14;" vertex="1" parent="1">
          <mxGeometry x="620" y="290" width="140" height="30" as="geometry" />
        </mxCell>
        <mxCell id="D2CJ33w6apMbW9ELbGaL-34" value="Offline Queue" style="text;html=1;strokeColor=none;fillColor=none;align=center;verticalAlign=middle;whiteSpace=wrap;rounded=0;strokeWidth=1;fontSize=14;fontColor=#007FFF;" vertex="1" parent="1">
          <mxGeometry x="650" y="40" width="100" height="30" as="geometry" />
        </mxCell>
        <mxCell id="D2CJ33w6apMbW9ELbGaL-35" value="PC client" style="shape=umlLifeline;perimeter=lifelinePerimeter;whiteSpace=wrap;html=1;container=1;collapsible=0;recursiveResize=0;outlineConnect=0;strokeWidth=1;fillColor=#fbfbfb;fontSize=14;" vertex="1" parent="1">
          <mxGeometry x="130" y="390" width="220" height="380" as="geometry" />
        </mxCell>
        <mxCell id="D2CJ33w6apMbW9ELbGaL-45" value="" style="endArrow=classic;html=1;rounded=0;" edge="1" parent="D2CJ33w6apMbW9ELbGaL-35" target="D2CJ33w6apMbW9ELbGaL-36">
          <mxGeometry relative="1" as="geometry">
            <mxPoint x="110" y="80" as="sourcePoint" />
            <mxPoint x="220" y="80" as="targetPoint" />
          </mxGeometry>
        </mxCell>
        <mxCell id="D2CJ33w6apMbW9ELbGaL-46" value="Dispatch" style="edgeLabel;resizable=0;html=1;align=center;verticalAlign=middle;strokeWidth=1;fillColor=#fbfbfb;" connectable="0" vertex="1" parent="D2CJ33w6apMbW9ELbGaL-45">
          <mxGeometry relative="1" as="geometry" />
        </mxCell>
        <mxCell id="D2CJ33w6apMbW9ELbGaL-47" value="Online" style="edgeLabel;resizable=0;html=1;align=left;verticalAlign=bottom;strokeWidth=1;fillColor=#fbfbfb;fontStyle=1" connectable="0" vertex="1" parent="D2CJ33w6apMbW9ELbGaL-45">
          <mxGeometry x="-1" relative="1" as="geometry">
            <mxPoint x="-40" y="10" as="offset" />
          </mxGeometry>
        </mxCell>
        <mxCell id="D2CJ33w6apMbW9ELbGaL-59" value="" style="endArrow=classic;html=1;rounded=0;" edge="1" parent="D2CJ33w6apMbW9ELbGaL-35" source="D2CJ33w6apMbW9ELbGaL-35">
          <mxGeometry relative="1" as="geometry">
            <mxPoint x="75" y="240" as="sourcePoint" />
            <mxPoint x="515" y="250" as="targetPoint" />
            <Array as="points">
              <mxPoint x="280" y="250" />
              <mxPoint x="410" y="250" />
              <mxPoint x="470" y="250" />
            </Array>
          </mxGeometry>
        </mxCell>
        <mxCell id="D2CJ33w6apMbW9ELbGaL-60" value="Sync" style="edgeLabel;resizable=0;html=1;align=center;verticalAlign=middle;strokeWidth=1;fillColor=#fbfbfb;" connectable="0" vertex="1" parent="D2CJ33w6apMbW9ELbGaL-59">
          <mxGeometry relative="1" as="geometry" />
        </mxCell>
        <mxCell id="D2CJ33w6apMbW9ELbGaL-61" value="&#39;over-queue&#39;" style="edgeLabel;resizable=0;html=1;align=left;verticalAlign=bottom;strokeWidth=1;fillColor=#fbfbfb;fontStyle=1" connectable="0" vertex="1" parent="D2CJ33w6apMbW9ELbGaL-59">
          <mxGeometry x="-1" relative="1" as="geometry">
            <mxPoint x="-69" y="10" as="offset" />
          </mxGeometry>
        </mxCell>
        <mxCell id="D2CJ33w6apMbW9ELbGaL-64" value="&lt;div&gt;&lt;br&gt;&lt;/div&gt;&lt;ul&gt;&lt;li&gt;Public key&lt;/li&gt;&lt;li&gt;Sync source&lt;/li&gt;&lt;li&gt;Current queue client [m,n]&lt;/li&gt;&lt;/ul&gt;" style="text;html=1;strokeColor=none;fillColor=none;align=left;verticalAlign=middle;whiteSpace=wrap;rounded=0;strokeWidth=1;fontStyle=2" vertex="1" parent="D2CJ33w6apMbW9ELbGaL-35">
          <mxGeometry x="100" y="180" width="140" height="60" as="geometry" />
        </mxCell>
        <mxCell id="D2CJ33w6apMbW9ELbGaL-36" value="Server" style="shape=umlLifeline;perimeter=lifelinePerimeter;whiteSpace=wrap;html=1;container=1;collapsible=0;recursiveResize=0;outlineConnect=0;lifelineDashed=0;strokeWidth=1;fillColor=#fbfbfb;fontSize=14;" vertex="1" parent="1">
          <mxGeometry x="590" y="380" width="100" height="390" as="geometry" />
        </mxCell>
        <mxCell id="D2CJ33w6apMbW9ELbGaL-37" value="" style="endArrow=classic;startArrow=classic;html=1;rounded=0;" edge="1" parent="1">
          <mxGeometry width="50" height="50" relative="1" as="geometry">
            <mxPoint x="670" y="170" as="sourcePoint" />
            <mxPoint x="750" y="170" as="targetPoint" />
          </mxGeometry>
        </mxCell>
        <mxCell id="D2CJ33w6apMbW9ELbGaL-38" value="1600" style="text;html=1;strokeColor=none;fillColor=none;align=center;verticalAlign=middle;whiteSpace=wrap;rounded=0;strokeWidth=1;" vertex="1" parent="1">
          <mxGeometry x="680" y="170" width="60" height="30" as="geometry" />
        </mxCell>
        <mxCell id="D2CJ33w6apMbW9ELbGaL-54" value="&lt;ul&gt;&lt;li&gt;Offline Queue&lt;/li&gt;&lt;li&gt;Sync Source?: non or &#39;over-queue&#39;&amp;nbsp;&lt;/li&gt;&lt;/ul&gt;" style="text;html=1;strokeColor=none;fillColor=none;align=left;verticalAlign=middle;whiteSpace=wrap;rounded=0;strokeWidth=1;fontStyle=2" vertex="1" parent="1">
          <mxGeometry x="340" y="525" width="260" height="50" as="geometry" />
        </mxCell>
        <mxCell id="D2CJ33w6apMbW9ELbGaL-62" value="return" style="html=1;verticalAlign=bottom;endArrow=open;dashed=1;endSize=8;rounded=0;fontStyle=1" edge="1" parent="1" source="D2CJ33w6apMbW9ELbGaL-36" target="D2CJ33w6apMbW9ELbGaL-35">
          <mxGeometry relative="1" as="geometry">
            <mxPoint x="460" y="590" as="sourcePoint" />
            <mxPoint x="380" y="590" as="targetPoint" />
            <Array as="points">
              <mxPoint x="270" y="520" />
            </Array>
          </mxGeometry>
        </mxCell>
        <mxCell id="D2CJ33w6apMbW9ELbGaL-65" value="return" style="html=1;verticalAlign=bottom;endArrow=open;dashed=1;endSize=8;rounded=0;" edge="1" parent="1">
          <mxGeometry relative="1" as="geometry">
            <mxPoint x="640" y="720" as="sourcePoint" />
            <mxPoint x="240" y="720" as="targetPoint" />
            <Array as="points">
              <mxPoint x="270.5" y="720" />
            </Array>
          </mxGeometry>
        </mxCell>
        <mxCell id="D2CJ33w6apMbW9ELbGaL-66" value="&lt;ul&gt;&lt;li&gt;db encrypted&lt;/li&gt;&lt;/ul&gt;" style="text;html=1;strokeColor=none;fillColor=none;align=left;verticalAlign=middle;whiteSpace=wrap;rounded=0;strokeWidth=1;fontStyle=2" vertex="1" parent="1">
          <mxGeometry x="390" y="730" width="120" height="30" as="geometry" />
        </mxCell>
        <mxCell id="D2CJ33w6apMbW9ELbGaL-71" value="Offline normal queue" style="text;html=1;strokeColor=none;fillColor=none;align=center;verticalAlign=middle;whiteSpace=wrap;rounded=0;strokeWidth=1;fontColor=#007FFF;fontSize=14;" vertex="1" parent="1">
          <mxGeometry x="80" y="875" width="160" height="40" as="geometry" />
        </mxCell>
        <mxCell id="D2CJ33w6apMbW9ELbGaL-72" value="Offline over queue" style="text;html=1;strokeColor=none;fillColor=none;align=center;verticalAlign=middle;whiteSpace=wrap;rounded=0;strokeWidth=1;fontColor=#007FFF;fontSize=14;" vertex="1" parent="1">
          <mxGeometry x="80" y="1010" width="150" height="50" as="geometry" />
        </mxCell>
        <mxCell id="D2CJ33w6apMbW9ELbGaL-74" value="" style="rounded=0;whiteSpace=wrap;html=1;fillColor=#60a917;fontColor=#ffffff;strokeColor=#2D7600;" vertex="1" parent="1">
          <mxGeometry x="330" y="860" width="20" height="60" as="geometry" />
        </mxCell>
        <mxCell id="D2CJ33w6apMbW9ELbGaL-75" value="" style="rounded=0;whiteSpace=wrap;html=1;fillColor=#60a917;fontColor=#ffffff;strokeColor=#2D7600;" vertex="1" parent="1">
          <mxGeometry x="350" y="860" width="20" height="60" as="geometry" />
        </mxCell>
        <mxCell id="D2CJ33w6apMbW9ELbGaL-76" value="" style="rounded=0;whiteSpace=wrap;html=1;fillColor=#60a917;fontColor=#ffffff;strokeColor=#2D7600;" vertex="1" parent="1">
          <mxGeometry x="370" y="860" width="20" height="60" as="geometry" />
        </mxCell>
        <mxCell id="D2CJ33w6apMbW9ELbGaL-78" value="" style="rounded=0;whiteSpace=wrap;html=1;fillColor=#60a917;fontColor=#ffffff;strokeColor=#2D7600;" vertex="1" parent="1">
          <mxGeometry x="390" y="860" width="20" height="60" as="geometry" />
        </mxCell>
        <mxCell id="D2CJ33w6apMbW9ELbGaL-86" value="" style="rounded=0;whiteSpace=wrap;html=1;fillColor=#60a917;strokeColor=#2D7600;fontColor=#ffffff;" vertex="1" parent="1">
          <mxGeometry x="550" y="860" width="20" height="60" as="geometry" />
        </mxCell>
        <mxCell id="D2CJ33w6apMbW9ELbGaL-87" value="" style="rounded=0;whiteSpace=wrap;html=1;fillColor=#60a917;fontColor=#ffffff;strokeColor=#2D7600;" vertex="1" parent="1">
          <mxGeometry x="570" y="860" width="20" height="60" as="geometry" />
        </mxCell>
        <mxCell id="D2CJ33w6apMbW9ELbGaL-88" value="" style="rounded=0;whiteSpace=wrap;html=1;fillColor=#60a917;fontColor=#ffffff;strokeColor=#2D7600;" vertex="1" parent="1">
          <mxGeometry x="590" y="860" width="20" height="60" as="geometry" />
        </mxCell>
        <mxCell id="D2CJ33w6apMbW9ELbGaL-89" value="" style="rounded=0;whiteSpace=wrap;html=1;fillColor=#60a917;fontColor=#ffffff;strokeColor=#2D7600;" vertex="1" parent="1">
          <mxGeometry x="610" y="860" width="20" height="60" as="geometry" />
        </mxCell>
        <mxCell id="D2CJ33w6apMbW9ELbGaL-90" value="" style="rounded=0;whiteSpace=wrap;html=1;fillColor=#60a917;strokeColor=#2D7600;fontColor=#ffffff;" vertex="1" parent="1">
          <mxGeometry x="530" y="860" width="20" height="60" as="geometry" />
        </mxCell>
        <mxCell id="D2CJ33w6apMbW9ELbGaL-91" value="" style="rounded=0;whiteSpace=wrap;html=1;fillColor=#60a917;fontColor=#ffffff;strokeColor=#2D7600;" vertex="1" parent="1">
          <mxGeometry x="630" y="860" width="20" height="60" as="geometry" />
        </mxCell>
        <mxCell id="D2CJ33w6apMbW9ELbGaL-92" value="Current queue client" style="text;html=1;strokeColor=none;fillColor=none;align=center;verticalAlign=middle;whiteSpace=wrap;rounded=0;strokeWidth=1;" vertex="1" parent="1">
          <mxGeometry x="340" y="810" width="70" height="30" as="geometry" />
        </mxCell>
        <mxCell id="D2CJ33w6apMbW9ELbGaL-93" value="Offline queue" style="text;html=1;strokeColor=none;fillColor=none;align=center;verticalAlign=middle;whiteSpace=wrap;rounded=0;strokeWidth=1;" vertex="1" parent="1">
          <mxGeometry x="560" y="810" width="60" height="30" as="geometry" />
        </mxCell>
        <mxCell id="D2CJ33w6apMbW9ELbGaL-94" value="+" style="text;html=1;strokeColor=none;fillColor=none;align=center;verticalAlign=middle;whiteSpace=wrap;rounded=0;strokeWidth=1;" vertex="1" parent="1">
          <mxGeometry x="440" y="875" width="60" height="30" as="geometry" />
        </mxCell>
        <mxCell id="D2CJ33w6apMbW9ELbGaL-95" value="" style="rounded=0;whiteSpace=wrap;html=1;fillColor=#60a917;fontColor=#ffffff;strokeColor=#2D7600;" vertex="1" parent="1">
          <mxGeometry x="330" y="1010" width="20" height="60" as="geometry" />
        </mxCell>
        <mxCell id="D2CJ33w6apMbW9ELbGaL-96" value="" style="rounded=0;whiteSpace=wrap;html=1;fillColor=#60a917;fontColor=#ffffff;strokeColor=#2D7600;" vertex="1" parent="1">
          <mxGeometry x="350" y="1010" width="20" height="60" as="geometry" />
        </mxCell>
        <mxCell id="D2CJ33w6apMbW9ELbGaL-97" value="" style="rounded=0;whiteSpace=wrap;html=1;fillColor=#60a917;fontColor=#ffffff;strokeColor=#2D7600;" vertex="1" parent="1">
          <mxGeometry x="370" y="1010" width="20" height="60" as="geometry" />
        </mxCell>
        <mxCell id="D2CJ33w6apMbW9ELbGaL-98" value="" style="rounded=0;whiteSpace=wrap;html=1;fillColor=#60a917;fontColor=#ffffff;strokeColor=#2D7600;" vertex="1" parent="1">
          <mxGeometry x="390" y="1010" width="20" height="60" as="geometry" />
        </mxCell>
        <mxCell id="D2CJ33w6apMbW9ELbGaL-99" value="" style="rounded=0;whiteSpace=wrap;html=1;fillColor=#f5f5f5;gradientColor=#b3b3b3;strokeColor=#666666;" vertex="1" parent="1">
          <mxGeometry x="550" y="1010" width="20" height="60" as="geometry" />
        </mxCell>
        <mxCell id="D2CJ33w6apMbW9ELbGaL-100" value="" style="rounded=0;whiteSpace=wrap;html=1;fillColor=#60a917;fontColor=#ffffff;strokeColor=#2D7600;" vertex="1" parent="1">
          <mxGeometry x="570" y="1010" width="20" height="60" as="geometry" />
        </mxCell>
        <mxCell id="D2CJ33w6apMbW9ELbGaL-101" value="" style="rounded=0;whiteSpace=wrap;html=1;fillColor=#60a917;fontColor=#ffffff;strokeColor=#2D7600;" vertex="1" parent="1">
          <mxGeometry x="590" y="1010" width="20" height="60" as="geometry" />
        </mxCell>
        <mxCell id="D2CJ33w6apMbW9ELbGaL-102" value="" style="rounded=0;whiteSpace=wrap;html=1;fillColor=#60a917;fontColor=#ffffff;strokeColor=#2D7600;" vertex="1" parent="1">
          <mxGeometry x="610" y="1010" width="20" height="60" as="geometry" />
        </mxCell>
        <mxCell id="D2CJ33w6apMbW9ELbGaL-103" value="" style="rounded=0;whiteSpace=wrap;html=1;fillColor=#f5f5f5;gradientColor=#b3b3b3;strokeColor=#666666;" vertex="1" parent="1">
          <mxGeometry x="530" y="1010" width="20" height="60" as="geometry" />
        </mxCell>
        <mxCell id="D2CJ33w6apMbW9ELbGaL-104" value="" style="rounded=0;whiteSpace=wrap;html=1;fillColor=#60a917;fontColor=#ffffff;strokeColor=#2D7600;" vertex="1" parent="1">
          <mxGeometry x="630" y="1010" width="20" height="60" as="geometry" />
        </mxCell>
        <mxCell id="D2CJ33w6apMbW9ELbGaL-105" value="Current queue client" style="text;html=1;strokeColor=none;fillColor=none;align=center;verticalAlign=middle;whiteSpace=wrap;rounded=0;strokeWidth=1;" vertex="1" parent="1">
          <mxGeometry x="340" y="960" width="70" height="30" as="geometry" />
        </mxCell>
        <mxCell id="D2CJ33w6apMbW9ELbGaL-106" value="Offline queue" style="text;html=1;strokeColor=none;fillColor=none;align=center;verticalAlign=middle;whiteSpace=wrap;rounded=0;strokeWidth=1;" vertex="1" parent="1">
          <mxGeometry x="560" y="960" width="60" height="30" as="geometry" />
        </mxCell>
        <mxCell id="D2CJ33w6apMbW9ELbGaL-107" value="+" style="text;html=1;strokeColor=none;fillColor=none;align=center;verticalAlign=middle;whiteSpace=wrap;rounded=0;strokeWidth=1;" vertex="1" parent="1">
          <mxGeometry x="440" y="1020" width="60" height="30" as="geometry" />
        </mxCell>
      </root>
    </mxGraphModel>
  </diagram>
</mxfile>
